<?xml version="1.0" encoding="utf-8"?>
<!-- Generator: Adobe Illustrator 28.3.0, SVG Export Plug-In . SVG Version: 6.00 Build 0)  -->
<svg version="1.1" xmlns="http://www.w3.org/2000/svg" xmlns:xlink="http://www.w3.org/1999/xlink" x="0px" y="0px"
	 viewBox="0 0 750 500" style="enable-background:new 0 0 750 500;" xml:space="preserve">
<style type="text/css">
	.st0{fill:#B5CDF4;}
	.st1{fill:#8C3454;}
	.st2{fill:#A83B5D;}
	.st3{fill:#FF5050;}
	.st4{fill:#FFC91F;}
	.st5{fill:none;stroke:#FFE578;stroke-width:2;stroke-miterlimit:10;}
	.st6{fill:#FFE578;}
	.st7{fill:#D8A235;}
	.st8{fill:#FFD064;}
	.st9{fill:#FFB692;}
	.st10{fill:none;stroke:#FFB692;stroke-width:33;stroke-miterlimit:10;}
	.st11{fill:#D88D87;}
	.st12{fill:none;stroke:#D88D87;stroke-miterlimit:10;}
	.st13{fill:#A0B8E8;}
	.st14{fill:#FFFFFF;}
	.st15{fill:#568AFF;}
	.st16{fill:#3758A3;}
	.st17{fill:#BACADD;}
	.st18{fill:#3A9B9B;}
	.st19{fill:#A7E070;}
	.st20{fill:#5B4031;}
	.st21{fill:#664631;}
	.st22{fill:#34344F;}
	.st23{fill:#7A513B;}
	.st24{fill:#FF9292;}
	.st25{fill:#FFABAB;}
</style>
<g id="BACKGROUND">
	<g>
		<path class="st0" d="M109.89,196.2L336.2,71.34c22.92-12.65,51.12-10.75,72.13,4.86l239.28,177.64
			c46.71,34.68,29.89,108.35-27.25,119.32l-326.34,62.63c-19.61,3.76-39.88-1.44-55.25-14.18L99.53,306.19
			C63.25,276.12,68.63,218.96,109.89,196.2z"/>
	</g>
</g>
<g id="OBJECTS">
	<g>
		<g>
			<path class="st1" d="M671.73,108.66l-5.36-1.47c0.79-2.17,1.25-4.5,1.25-6.95V68.42c0-11.19-9.07-20.26-20.26-20.26H451.45
				l-17.49-4.8l-12.38,7.92c-0.25,0.16-0.5,0.31-0.74,0.47l-0.11,0.07l0.01,0c-5.23,3.66-8.66,9.72-8.66,16.59v31.82
				c0,11.19,9.07,20.26,20.26,20.26h215.02c4.3,0,8.29-1.35,11.57-3.64l0.01,0L671.73,108.66z"/>
			<polygon class="st1" points="459.71,116.78 459.71,150.78 499.45,111.04 			"/>
			<path class="st2" d="M451.45,48.16l-17.49-4.8l-12.38,7.92c-0.25,0.16-0.5,0.31-0.74,0.47l-0.11,0.07l0.01,0
				c-5.23,3.66-8.66,9.72-8.66,16.59v31.82c0,4.01,1.18,7.75,3.2,10.89l134.15-62.97H451.45z"/>
			<path class="st3" d="M661.08,111.68H446.05c-11.19,0-20.26-9.07-20.26-20.26V59.61c0-11.19,9.07-20.26,20.26-20.26h215.02
				c11.19,0,20.26,9.07,20.26,20.26v31.82C681.33,102.62,672.26,111.68,661.08,111.68z"/>
			<polygon class="st3" points="466.9,109.59 466.9,143.59 506.64,103.85 			"/>
			<g>
				<polygon class="st2" points="472.47,70.38 463.55,69.09 459.63,57 454.05,57 448.36,68.53 435.64,70.38 444.84,79.36 
					442.67,92.03 448.24,92.03 454.16,86.1 465.44,92.03 471.01,92.03 466.02,76.67 				"/>
				<g>
					<polygon class="st1" points="455.66,86.89 465.44,92.03 471.01,92.03 469.45,87.22 455.32,79.37 					"/>
					<polygon class="st1" points="459.63,57 454.05,57 448.36,68.53 453.93,68.53 459.8,57.55 					"/>
					<polygon class="st1" points="441.21,70.38 435.64,70.38 444.84,79.36 450.42,79.36 					"/>
				</g>
				<polygon class="st4" points="465.32,68.53 459.63,57 453.93,68.53 441.21,70.38 450.42,79.36 448.24,92.03 459.63,86.05 
					471.01,92.03 468.83,79.36 478.04,70.38 				"/>
				<polygon class="st5" points="466.36,69.35 461.44,59.38 456.53,69.35 445.53,70.94 453.49,78.7 451.61,89.65 461.44,84.48 
					471.28,89.65 469.4,78.7 477.36,70.94 				"/>
				<g>
					<polygon class="st6" points="453.49,78.7 452.18,86.32 468.8,69.7 466.36,69.35 463.67,63.9 451.15,76.42 					"/>
					<polygon class="st6" points="474.14,70.48 473.12,70.33 456.23,87.22 458.69,85.93 					"/>
				</g>
			</g>
			<g>
				<polygon class="st2" points="520.77,70.38 511.85,69.09 507.92,57 502.35,57 496.66,68.53 483.93,70.38 493.14,79.36 
					490.97,92.03 496.54,92.03 502.45,86.1 513.73,92.03 519.31,92.03 514.32,76.67 				"/>
				<g>
					<polygon class="st1" points="503.95,86.89 513.73,92.03 519.31,92.03 517.74,87.22 503.62,79.37 					"/>
					<polygon class="st1" points="507.92,57 502.35,57 496.66,68.53 502.23,68.53 508.1,57.55 					"/>
					<polygon class="st1" points="489.51,70.38 483.93,70.38 493.14,79.36 498.72,79.36 					"/>
				</g>
				<polygon class="st4" points="513.62,68.53 507.92,57 502.23,68.53 489.51,70.38 498.72,79.36 496.54,92.03 507.92,86.05 
					519.31,92.03 517.13,79.36 526.34,70.38 				"/>
				<polygon class="st5" points="514.66,69.35 509.74,59.38 504.82,69.35 493.83,70.94 501.78,78.7 499.91,89.65 509.74,84.48 
					519.58,89.65 517.7,78.7 525.66,70.94 				"/>
				<g>
					<polygon class="st6" points="501.78,78.7 500.48,86.32 517.1,69.7 514.66,69.35 511.97,63.9 499.45,76.42 					"/>
					<polygon class="st6" points="522.44,70.48 521.42,70.33 504.53,87.22 506.99,85.93 					"/>
				</g>
			</g>
			<g>
				<polygon class="st2" points="569.07,70.38 560.15,69.09 556.22,57 550.65,57 544.96,68.53 532.23,70.38 541.44,79.36 
					539.27,92.03 544.84,92.03 550.75,86.1 562.03,92.03 567.6,92.03 562.61,76.67 				"/>
				<g>
					<polygon class="st1" points="552.25,86.89 562.03,92.03 567.6,92.03 566.04,87.22 551.92,79.37 					"/>
					<polygon class="st1" points="556.22,57 550.65,57 544.96,68.53 550.53,68.53 556.4,57.55 					"/>
					<polygon class="st1" points="537.81,70.38 532.23,70.38 541.44,79.36 547.01,79.36 					"/>
				</g>
				<polygon class="st4" points="561.91,68.53 556.22,57 550.53,68.53 537.81,70.38 547.01,79.36 544.84,92.03 556.22,86.05 
					567.6,92.03 565.43,79.36 574.64,70.38 				"/>
				<polygon class="st5" points="562.96,69.35 558.04,59.38 553.12,69.35 542.13,70.94 550.08,78.7 548.2,89.65 558.04,84.48 
					567.88,89.65 566,78.7 573.95,70.94 				"/>
				<g>
					<polygon class="st6" points="550.08,78.7 548.78,86.32 565.4,69.7 562.96,69.35 560.27,63.9 547.75,76.42 					"/>
					<polygon class="st6" points="570.74,70.48 569.72,70.33 552.83,87.22 555.29,85.93 					"/>
				</g>
			</g>
			<g>
				<polygon class="st2" points="617.37,70.38 608.45,69.09 604.52,57 598.95,57 593.26,68.53 580.53,70.38 589.74,79.36 
					587.57,92.03 593.14,92.03 599.05,86.1 610.33,92.03 615.9,92.03 610.91,76.67 				"/>
				<g>
					<polygon class="st1" points="600.55,86.89 610.33,92.03 615.9,92.03 614.34,87.22 600.22,79.37 					"/>
					<polygon class="st1" points="604.52,57 598.95,57 593.26,68.53 598.83,68.53 604.7,57.55 					"/>
					<polygon class="st1" points="586.1,70.38 580.53,70.38 589.74,79.36 595.31,79.36 					"/>
				</g>
				<polygon class="st4" points="610.21,68.53 604.52,57 598.83,68.53 586.1,70.38 595.31,79.36 593.14,92.03 604.52,86.05 
					615.9,92.03 613.73,79.36 622.94,70.38 				"/>
				<polygon class="st5" points="611.26,69.35 606.34,59.38 601.42,69.35 590.42,70.94 598.38,78.7 596.5,89.65 606.34,84.48 
					616.17,89.65 614.3,78.7 622.25,70.94 				"/>
				<g>
					<polygon class="st6" points="598.38,78.7 597.07,86.32 613.7,69.7 611.26,69.35 608.57,63.9 596.05,76.42 					"/>
					<polygon class="st6" points="619.04,70.48 618.02,70.33 601.13,87.22 603.59,85.93 					"/>
				</g>
			</g>
			<g>
				<polygon class="st2" points="665.66,70.38 656.75,69.09 652.82,57 647.25,57 641.55,68.53 628.83,70.38 638.04,79.36 
					635.86,92.03 641.44,92.03 647.35,86.1 658.63,92.03 664.2,92.03 659.21,76.67 				"/>
				<g>
					<polygon class="st1" points="648.85,86.89 658.63,92.03 664.2,92.03 662.64,87.22 648.51,79.37 					"/>
					<polygon class="st1" points="652.82,57 647.25,57 641.55,68.53 647.13,68.53 653,57.55 					"/>
					<polygon class="st1" points="634.4,70.38 628.83,70.38 638.04,79.36 643.61,79.36 					"/>
				</g>
				<polygon class="st4" points="658.51,68.53 652.82,57 647.13,68.53 634.4,70.38 643.61,79.36 641.44,92.03 652.82,86.05 
					664.2,92.03 662.03,79.36 671.24,70.38 				"/>
				<polygon class="st5" points="659.55,69.35 654.64,59.38 649.72,69.35 638.72,70.94 646.68,78.7 644.8,89.65 654.64,84.48 
					664.47,89.65 662.59,78.7 670.55,70.94 				"/>
				<g>
					<polygon class="st6" points="646.68,78.7 645.37,86.32 662,69.7 659.55,69.35 656.87,63.9 644.34,76.42 					"/>
					<polygon class="st6" points="667.34,70.48 666.32,70.33 649.43,87.22 651.89,85.93 					"/>
				</g>
			</g>
		</g>
		<g>
			<path class="st7" d="M578.76,309.8l-10.33-12.01l-3.42-17.08v-6.22l-6.44,6.44c-1.28,12.31-8.09,22.96-17.88,29.48l-7.36-0.61
				l-6.44,6.44c16.89,3.64,29.87,17.82,31.69,35.31l6.44-6.44l1.13-13.18c5.75-7.86,14.26-13.56,24.11-15.69l6.44-6.44H578.76z"/>
			<path class="st8" d="M565.01,274.49c-1.82,17.5-14.8,31.67-31.69,35.31c16.89,3.64,29.87,17.82,31.69,35.31
				c1.82-17.5,14.8-31.67,31.69-35.31C579.8,306.16,566.83,291.99,565.01,274.49z"/>
			<g>
				<path class="st6" d="M580.26,302.06l-23.09,23.09c1.04,1.39,2,2.85,2.86,4.38l24.51-24.51
					C583.05,304.12,581.62,303.13,580.26,302.06z"/>
				<path class="st6" d="M569.95,290.03l-24.54,24.54c3.88,2.31,7.34,5.24,10.24,8.67l22.73-22.73
					C575.03,297.51,572.17,293.98,569.95,290.03z"/>
			</g>
		</g>
		<g>
			<path class="st7" d="M232.41,91.84l-10.33-12.01l-3.42-17.08v-6.22l-6.44,6.44c-1.28,12.31-8.09,22.97-17.88,29.48l-7.36-0.61
				l-6.44,6.44c16.89,3.64,29.87,17.82,31.69,35.31l6.44-6.44l1.13-13.18c5.75-7.86,14.26-13.56,24.11-15.69l6.44-6.44H232.41z"/>
			<path class="st8" d="M218.66,56.53c-1.82,17.5-14.8,31.67-31.69,35.31c16.89,3.64,29.87,17.82,31.69,35.31
				c1.82-17.5,14.8-31.67,31.69-35.31C233.45,88.2,220.48,74.03,218.66,56.53z"/>
			<g>
				<path class="st6" d="M233.91,84.1l-23.09,23.09c1.04,1.39,2,2.85,2.86,4.38l24.51-24.51C236.7,86.16,235.27,85.17,233.91,84.1z"
					/>
				<path class="st6" d="M223.6,72.07L199.06,96.6c3.88,2.31,7.34,5.25,10.24,8.67l22.73-22.73
					C228.68,79.56,225.82,76.02,223.6,72.07z"/>
			</g>
		</g>
		<g>
			<path class="st7" d="M465.08,239.39l-3.75-4.36l-1.24-6.2v-2.26l-2.34,2.34c-0.47,4.47-2.94,8.34-6.49,10.7l-2.67-0.22
				l-2.34,2.34c6.13,1.32,10.85,6.47,11.51,12.82l2.34-2.34l0.41-4.79c2.09-2.85,5.18-4.93,8.76-5.7l2.34-2.34H465.08z"/>
			<path class="st8" d="M460.09,226.56c-0.66,6.35-5.37,11.5-11.51,12.82c6.13,1.32,10.85,6.47,11.51,12.82
				c0.66-6.35,5.37-11.5,11.51-12.82C465.46,238.06,460.75,232.92,460.09,226.56z"/>
			<g>
				<path class="st6" d="M465.63,236.58l-8.38,8.38c0.38,0.51,0.73,1.04,1.04,1.59l8.9-8.9
					C466.64,237.32,466.12,236.96,465.63,236.58z"/>
				<path class="st6" d="M461.88,232.21l-8.91,8.91c1.41,0.84,2.67,1.9,3.72,3.15l8.25-8.25
					C463.73,234.92,462.69,233.64,461.88,232.21z"/>
			</g>
		</g>
		<g>
			<path class="st7" d="M255.65,144.56l-4.78-5.55l-1.58-7.9v-2.88l-2.98,2.98c-0.59,5.69-3.74,10.62-8.27,13.63l-3.4-0.28
				l-2.98,2.98c7.81,1.68,13.81,8.24,14.66,16.33l2.98-2.98l0.52-6.1c2.66-3.63,6.6-6.27,11.15-7.25l2.98-2.98H255.65z"/>
			<path class="st8" d="M249.29,128.23c-0.84,8.09-6.84,14.65-14.66,16.33c7.81,1.68,13.81,8.24,14.66,16.33
				c0.84-8.09,6.84-14.65,14.66-16.33C256.13,142.88,250.13,136.32,249.29,128.23z"/>
			<g>
				<path class="st6" d="M256.34,140.98l-10.68,10.68c0.48,0.64,0.92,1.32,1.32,2.02l11.34-11.34
					C257.63,141.93,256.97,141.47,256.34,140.98z"/>
				<path class="st6" d="M251.57,135.41l-11.35,11.35c1.79,1.07,3.4,2.43,4.74,4.01l10.51-10.51
					C253.92,138.88,252.6,137.24,251.57,135.41z"/>
			</g>
		</g>
		<g>
			<path class="st7" d="M630.79,258.87l-4.78-5.55l-1.58-7.9v-2.88l-2.98,2.98c-0.59,5.69-3.74,10.62-8.27,13.63l-3.4-0.28
				l-2.98,2.98c7.81,1.68,13.81,8.24,14.66,16.33l2.98-2.98l0.52-6.1c2.66-3.63,6.6-6.27,11.15-7.25l2.98-2.98H630.79z"/>
			<path class="st8" d="M624.43,242.54c-0.84,8.09-6.84,14.65-14.66,16.33c7.81,1.68,13.81,8.24,14.66,16.33
				c0.84-8.09,6.84-14.65,14.66-16.33C631.27,257.19,625.27,250.63,624.43,242.54z"/>
			<g>
				<path class="st6" d="M631.48,255.29l-10.68,10.68c0.48,0.64,0.92,1.32,1.32,2.02l11.34-11.34
					C632.77,256.24,632.11,255.79,631.48,255.29z"/>
				<path class="st6" d="M626.71,249.73l-11.35,11.35c1.79,1.07,3.4,2.43,4.74,4.01l10.51-10.51
					C629.06,253.19,627.74,251.55,626.71,249.73z"/>
			</g>
		</g>
		<g>
			<path class="st7" d="M87.51,230.25l-3.75-4.36l-1.24-6.2v-2.26l-2.34,2.34c-0.47,4.47-2.94,8.34-6.49,10.7l-2.67-0.22l-2.34,2.34
				c6.13,1.32,10.85,6.47,11.51,12.82l2.34-2.34l0.41-4.79c2.09-2.85,5.18-4.93,8.76-5.7l2.34-2.34H87.51z"/>
			<path class="st8" d="M82.51,217.43c-0.66,6.35-5.37,11.5-11.51,12.82c6.13,1.32,10.85,6.47,11.51,12.82
				c0.66-6.35,5.37-11.5,11.51-12.82C87.89,228.93,83.18,223.78,82.51,217.43z"/>
			<g>
				<path class="st6" d="M88.05,227.44l-8.38,8.38c0.38,0.51,0.73,1.04,1.04,1.59l8.9-8.9C89.07,228.19,88.55,227.83,88.05,227.44z"
					/>
				<path class="st6" d="M84.31,223.07l-8.91,8.91c1.41,0.84,2.67,1.9,3.72,3.15l8.25-8.25C86.15,225.79,85.11,224.5,84.31,223.07z"
					/>
			</g>
		</g>
		<g>
			<path class="st9" d="M95.75,304.56c3.94-7.37,15.58-15.64,24.01-12.26c8.43,3.37,2.19,13.83,2.19,13.83L95.75,304.56z"/>
			<path class="st10" d="M276.7,330.22c-54.36,121-127.51,89.2-169.75-1.56"/>
			<path class="st7" d="M283.68,374.24l-52.43-21.94l17.86-42.67c6.06-14.48,22.71-21.3,37.19-15.25v0
				c14.48,6.06,21.3,22.71,15.25,37.19L283.68,374.24z"/>
			<path class="st8" d="M274.31,500h157.57c3.43-52.43,6.85-104.87,10.28-157.3c4.37-18.58-5.64-37.54-23.49-44.45l-36.37-14.1
				c-8.5-3.3-17.52-5.07-26.64-5.26h0c-9.33-0.19-18.61,1.3-27.41,4.4l-32.57,11.44c-18.14,6.37-28.76,25.13-24.85,43.9L274.31,500z
				"/>
			<g>
				<path class="st9" d="M401.77,296.4c0-2.1-0.72-3.92-2.02-5.49l-17.45-6.77c-0.96-0.37-1.93-0.72-2.91-1.06
					c-8.19-1.15-17.97-1.53-28.2-1.53c-7.2,0-13.88,0.19-19.81,0.7c-1.05,0.32-2.09,0.66-3.13,1.02L306.3,291
					c-1.06,1.55-1.64,3.33-1.64,5.4c0,12.23,21.74,22.15,48.56,22.15S401.77,308.63,401.77,296.4z"/>
				<g>
					<path class="st9" d="M384.98,282.98c0-73.7-14.39-35.4-32.14-35.4c-17.75,0-32.14-33.55-32.14,35.4
						c0,25.83,14.39,23.6,32.14,23.6C370.59,306.58,384.98,308.81,384.98,282.98z"/>
					<path class="st11" d="M321.36,261.45c3.03-39.46,15.97-13.87,31.47-13.87c17.19,0,31.23-35.91,32.1,28.72
						C357.47,285.28,336.16,274.86,321.36,261.45z"/>
				</g>
				<g>
					<polyline class="st12" points="319.69,303.54 343.13,306.96 347.29,309.89 					"/>
					<polyline class="st12" points="359.5,310.38 363.65,307.2 390.03,305 					"/>
				</g>
			</g>
			<g>
				<path class="st13" d="M169.05,394.49l-8.09-9.58l-6.96-2.21c-3.9,3.12-9.11,4.12-13.91,2.6l-34.29-10.88
					c-7.42-2.35-11.84-10.13-10.06-17.71l15.07-64.36c0.95-4.05,3.57-7.56,7.19-9.61c3.62-2.06,7.97-2.51,11.94-1.26l39.15,12.42
					c2.45,0.78,4.63,2.15,6.37,4.01l1.87-0.38c9.42-1.92,9.99-2.03,20.44-9.31c9.28-6.46,27.13-23.1,33.05-28.69l9.47-29.86
					l3.3-1.87c5.17-2.93,10.79-3.56,16.24-1.83c6.84,2.17,10.96,7.34,11.72,8.36c0.93,1.25,1.55,2.72,1.8,4.26
					c0.75,4.72,4.23,28.9-1.36,41.51c-2.67,6.04-7.43,15-11.38,22.2l53.71,17.04l0.82,0.45c4.78,2.61,12.81,10.75,8.95,22.92
					c-1.97,6.2-6.22,10.76-12.36,13.3c0.22,2.85-0.14,5.77-1.07,8.7c-2.17,6.84-7.65,10.54-12.42,12.51
					c0.18,2.67-0.19,5.5-1.13,8.45c-2.32,7.31-8.45,11.01-12.81,12.78c0.17,2.83-0.33,5.85-1.51,9.18
					c-3.64,10.25-18.25,13.72-22.64,14.54l-2.39,0.45L169.05,394.49z"/>
				<g>
					<path class="st14" d="M178.43,385.12l-8.09-9.58l-6.96-2.21c-3.9,3.12-9.11,4.12-13.91,2.6l-34.29-10.88
						c-7.42-2.35-11.84-10.13-10.06-17.71l15.07-64.36c0.95-4.05,3.57-7.56,7.19-9.61c3.62-2.06,7.97-2.51,11.94-1.26l39.15,12.42
						c2.45,0.78,4.63,2.15,6.37,4.01l1.87-0.38c9.42-1.92,9.99-2.03,20.44-9.31c9.28-6.46,27.13-23.1,33.05-28.69l9.47-29.86
						l3.3-1.87c5.17-2.93,10.79-3.56,16.24-1.83c6.84,2.17,10.96,7.34,11.72,8.36c0.93,1.25,1.55,2.72,1.8,4.26
						c0.75,4.72,4.23,28.9-1.36,41.51c-2.67,6.04-7.43,15-11.38,22.2l53.71,17.04l0.82,0.45c4.78,2.61,12.81,10.75,8.95,22.92
						c-1.97,6.2-6.22,10.76-12.36,13.3c0.22,2.85-0.14,5.77-1.07,8.7c-2.17,6.84-7.65,10.54-12.42,12.51
						c0.18,2.67-0.19,5.5-1.13,8.45c-2.32,7.31-8.45,11.01-12.81,12.78c0.17,2.83-0.33,5.85-1.51,9.18
						c-3.64,10.25-18.25,13.72-22.64,14.54l-2.39,0.45L178.43,385.12z"/>
					<path class="st15" d="M331.34,332.67c3.42-10.78-3.66-17.98-7.89-20.29l-0.63-0.34l-56.09-17.8c3.99-7.22,9.63-17.7,12.6-24.41
						c5.33-12.04,1.93-35.65,1.19-40.26l0,0c-0.19-1.19-0.66-2.31-1.38-3.28l0,0c-0.69-0.92-4.42-5.61-10.61-7.57
						c-4.85-1.54-9.85-0.97-14.47,1.64l-2.54,1.44l-9.38,29.57c-5.22,4.94-24.04,22.55-33.72,29.3c-10.83,7.54-11.62,7.7-21.27,9.67
						l-3.16,0.64c-1.53-1.97-3.65-3.52-6.21-4.33l-39.15-12.42c-3.38-1.07-7.08-0.68-10.16,1.07c-3.08,1.75-5.31,4.73-6.12,8.18
						l-15.07,64.36c-1.51,6.45,2.25,13.07,8.56,15.07l34.29,10.88c4.61,1.46,9.45,0.16,12.71-2.98l8.77,2.78l8.09,9.58l87.55,27.78
						l1.83-0.34c4.09-0.76,17.71-3.97,20.95-13.09c1.46-4.11,1.65-7.3,1.2-9.92c5.11-1.71,10.97-5.27,13.1-11.97
						c1.19-3.76,1.26-6.82,0.84-9.25c4.97-1.73,10.64-5.18,12.71-11.72c1.15-3.64,1.21-6.85,0.78-9.51
						C323.15,343.67,328.89,340.39,331.34,332.67z"/>
				</g>
				<path class="st14" d="M188.63,297.64l-21.2,66.84l8.49,2.69l8.09,9.58l83.73,26.56c0,0,13.25-2.47,15.31-8.27
					c2.06-5.8,0.42-7.99-0.96-10.32c-1.38-2.33,0.49-3.3,1.9-3.18c1.41,0.11,11.18-1.57,13.27-8.14c2.09-6.57-0.9-8.74-1.49-10.04
					c-0.59-1.3,0.46-2.86,1.57-2.84c1.11,0.02,11.35-1.41,13.47-8.08c2.12-6.67-1.47-10.82-1.47-10.82s-0.06-1.91,2.21-2.41
					c2.27-0.5,10.22-0.99,12.69-8.77s-4.36-11.51-4.36-11.51l-64.11-20.34c0,0,12.04-21.11,16.75-31.75
					c3.49-7.88,2.16-23.89,1.24-31.66c-0.53-4.45-3.59-8.29-7.91-9.47c-2.34-0.64-5.11-0.57-8.14,1.15l-9.08,28.62
					c0,0-24.12,23.06-35.98,31.32C200.8,295.04,199.1,295.51,188.63,297.64z"/>
				<path class="st16" d="M136.39,281.33l39.15,12.42c2.8,0.89,4.35,3.88,3.46,6.68l-19.93,62.82c-0.89,2.8-3.88,4.35-6.68,3.46
					l-34.29-10.88c-2.65-0.84-4.21-3.58-3.57-6.29l15.07-64.36C130.3,282.17,133.43,280.39,136.39,281.33z"/>
				<g>
					<path class="st17" d="M324.38,324.46c-1.17-3.74-4.49-5.55-4.49-5.55l-58.47-18.55l0-0.01l-5.65-1.78l2.35,4.53l1.87,0.59
						l0.01-0.02l63.36,20.1C323.37,323.77,323.79,324,324.38,324.46z"/>
					<path class="st17" d="M265.86,225.69c-2.34-0.64-5.11-0.57-8.14,1.15l-9.08,28.62c0,0-24.12,23.06-35.98,31.32
						c-11.86,8.26-13.56,8.72-24.03,10.85l-21.2,66.84l4.56,1.45l20.12-63.43c10.47-2.13,12.17-2.59,24.03-10.85
						c11.86-8.26,35.98-31.32,35.98-31.32l9.08-28.62c3.03-1.72,5.8-1.79,8.14-1.15c1.41,0.39,2.68,1.06,3.78,1.94
						C271.91,229.24,269.28,226.63,265.86,225.69z"/>
				</g>
			</g>
			<g>
				<path class="st9" d="M314.82,449.77l-12.91-6.89c0,0-47.16,0.84-66.22-19.17c0,0-4.19-21.17,11.71-34.28l36.92,11.65
					c0,0-2.9-6.66-1.54-14.03c1.03-5.59,9.15-5.77,10.31-0.2c0.02,0.08,0.03,0.15,0.05,0.23c1.5,7.89,12.41,9.27,13.82,22.37
					l27.9,11.79L314.82,449.77z"/>
				<g>
					<path class="st11" d="M237.05,404.93c-0.21,0.65-0.39,1.29-0.55,1.93c17.74,7.99,33.99,10.93,39.53,11.75
						C263.46,416.62,243.64,407.93,237.05,404.93z"/>
					<path class="st11" d="M276.03,418.61c0.46,0.07,0.9,0.13,1.34,0.19C277.03,418.76,276.59,418.7,276.03,418.61z"/>
					<path class="st11" d="M241.11,396.41c-0.61,0.92-1.17,1.85-1.67,2.79c16.4,6.75,40.14,10.85,40.14,10.85
						C269.27,407.51,249.4,399.73,241.11,396.41z"/>
					<path class="st11" d="M277.37,418.8c0.44,0.06,0.68,0.08,0.68,0.08C277.83,418.86,277.59,418.83,277.37,418.8z"/>
					<path class="st11" d="M235.24,415.38c-0.03,0.63-0.04,1.24-0.04,1.82c15.24,7.29,36.96,10.4,36.96,10.4
						C257.33,424.61,240.46,417.63,235.24,415.38z"/>
				</g>
			</g>
			<g>
				<path class="st9" d="M90.32,332.62c0.86,2.25,2.17,4.45,4.47,5.2c3.72,1.2,10.26,1.47,16-3.01c0,0,5.17-3.89,10.47,7.74
					c0,0,3.03,0.75,5.81-1.65c2.78-2.4,8.88-24.28,7.21-31.36c-2.83-11.98-24.79-13.91-32.38-9.73
					C94.71,303.76,83.32,314.42,90.32,332.62z"/>
				<path class="st11" d="M128.47,338.69c0.32-0.68,0.66-1.49,1.01-2.39c-3.44-7.4-11.29-18.27-25.08-10.14
					C117.51,320.86,125.82,329.89,128.47,338.69z"/>
				<path class="st11" d="M131.37,330.55c0.3-1.04,0.59-2.11,0.87-3.21c-3.32-7.4-11.21-18.89-25.29-10.59
					C120.69,311.19,129.17,321.38,131.37,330.55z"/>
				<path class="st11" d="M109.5,307.35c13.38-5.42,21.76,4.1,24.23,13.06c0.22-1.24,0.4-2.44,0.53-3.6
					C130.67,309.45,122.89,299.46,109.5,307.35z"/>
			</g>
			<path class="st10" d="M310.49,428.41c110.22,60.23,148.3-19.61,126.96-107.95"/>
			<path class="st7" d="M470.03,369.9l-56.53,5.92l-4.82-46.01c-1.64-15.61,9.69-29.59,25.3-31.22h0
				c15.61-1.64,29.59,9.69,31.23,25.3L470.03,369.9z"/>
		</g>
		<g>
			<path class="st18" d="M204.8,200.39c1.45-4.66,2.25-9.61,2.25-14.75c0-27.42-22.23-49.65-49.65-49.65
				c-27.42,0-49.65,22.23-49.65,49.65c0,27.42,22.23,49.65,49.65,49.65c15.52,0,29.38-7.13,38.48-18.29l18.69,1.83l7.96-7.96
				L204.8,200.39z"/>
			<path class="st19" d="M222.54,210.87l-10.23-17.05c1.74-5.06,2.7-10.49,2.7-16.14c0-27.42-22.23-49.65-49.65-49.65
				c-27.42,0-49.65,22.23-49.65,49.65c0,27.42,22.23,49.65,49.65,49.65c15.52,0,29.38-7.13,38.48-18.29L222.54,210.87z"/>
			<g>
				<path class="st18" d="M138.04,169.43c-4.32,0-7.82,3.5-7.82,7.82c0,4.32,3.5,7.82,7.82,7.82s7.82-3.5,7.82-7.82
					C145.86,172.93,142.36,169.43,138.04,169.43z"/>
				<path class="st18" d="M164.05,169.43c-4.32,0-7.82,3.5-7.82,7.82c0,4.32,3.5,7.82,7.82,7.82c4.32,0,7.82-3.5,7.82-7.82
					C171.87,172.93,168.37,169.43,164.05,169.43z"/>
				<path class="st18" d="M190.06,169.43c-4.32,0-7.82,3.5-7.82,7.82c0,4.32,3.5,7.82,7.82,7.82c4.32,0,7.82-3.5,7.82-7.82
					C197.88,172.93,194.38,169.43,190.06,169.43z"/>
			</g>
			<g>
				<path class="st14" d="M141.49,165.98c-4.32,0-7.82,3.5-7.82,7.82c0,4.32,3.5,7.82,7.82,7.82c4.32,0,7.82-3.5,7.82-7.82
					C149.31,169.49,145.81,165.98,141.49,165.98z"/>
				<path class="st14" d="M167.5,165.98c-4.32,0-7.82,3.5-7.82,7.82c0,4.32,3.5,7.82,7.82,7.82c4.32,0,7.82-3.5,7.82-7.82
					C175.32,169.49,171.82,165.98,167.5,165.98z"/>
				<path class="st14" d="M193.51,165.98c-4.32,0-7.82,3.5-7.82,7.82c0,4.32,3.5,7.82,7.82,7.82c4.32,0,7.82-3.5,7.82-7.82
					C201.33,169.49,197.83,165.98,193.51,165.98z"/>
			</g>
		</g>
		<g>
			<path class="st20" d="M297.27,125.46c-30.73,17.99,1.11,56.19,1.11,56.19L297.27,125.46z"/>
			<g>
				<path class="st9" d="M308.89,186.64c1.72,10.63-2.64,20.34-9.74,21.69c-7.11,1.35-14.26-6.18-15.99-16.81
					c-1.72-10.63,2.64-20.34,9.74-21.69C300.01,168.48,307.17,176,308.89,186.64z"/>
				<path class="st11" d="M301.38,187.71c1.09-0.21,2.17-0.09,3.21,0.29c-0.02-0.18-0.04-0.35-0.07-0.53
					c-1.14-7.02-5.87-12-10.56-11.11c-4.69,0.89-7.58,7.31-6.44,14.33c0.88,5.4,3.87,9.58,7.35,10.82
					C293.96,194.69,296.81,188.57,301.38,187.71z"/>
			</g>
			<path class="st9" d="M364.21,111.59h-28.6c-22.32,0-40.58,18.26-40.58,40.58v59.08c0,31.17,25.5,56.67,56.67,56.67h0
				c31.17,0,56.67-25.5,56.67-56.67v-55.51C408.36,131.46,388.5,111.59,364.21,111.59z"/>
			<path class="st11" d="M295.14,149.34c36.15,15.15,73.14-10.78,93.13-30.56c-6.93-4.54-15.2-7.19-24.05-7.19h-28.6
				C314.24,111.59,296.61,128.33,295.14,149.34z"/>
			<path class="st21" d="M380.64,127.58c-0.1-3.09-3.37-5.03-6.13-3.65c-82.33,40.95-92.74,7.07-92.74,7.07l3.69,2.21
				c0,0-20.67-34.69,8.49-57.95c29.16-23.25,56.1,6.64,58.69,24.73l-0.37-11.44c0,0,5.54,6.27,5.91,14.76
				c0,0,37.28-2.95,52.04,23.62c14.76,26.57,0.74,59.42,0.74,59.42c-5.64-4.3-17.17-14.29-24.36-31.37
				C382.16,144.45,380.86,134.74,380.64,127.58z"/>
			<g>
				<path class="st21" d="M371.78,173.12l-9.38-3.6c-2.9-1.11-4.36-4.4-3.25-7.3l0,0c1.11-2.9,4.4-4.36,7.3-3.25l9.38,3.6
					c2.9,1.11,4.36,4.4,3.25,7.3l0,0C377.96,172.77,374.68,174.23,371.78,173.12z"/>
				<path class="st21" d="M326.93,170.2l-9.04,4.37c-2.8,1.35-6.19,0.17-7.54-2.63l0,0c-1.35-2.8-0.17-6.19,2.63-7.54l9.04-4.37
					c2.8-1.35,6.19-0.17,7.54,2.62l0,0C330.91,165.45,329.73,168.85,326.93,170.2z"/>
				<path class="st11" d="M334.09,210.72c0,0,16.09,1.24,16.16,4.02c0.07,2.77-7.13,4.09-9.11,2.9
					C339.15,216.46,334.09,210.72,334.09,210.72z"/>
				<g>
					<path class="st22" d="M327.84,184.71c0,3.44-2.79,6.23-6.23,6.23c-3.44,0-6.23-2.79-6.23-6.23c0-3.44,2.79-6.23,6.23-6.23
						C325.05,178.47,327.84,181.27,327.84,184.71z"/>
					<path class="st22" d="M372.65,184.71c0,3.44-2.79,6.23-6.23,6.23c-3.44,0-6.23-2.79-6.23-6.23c0-3.44,2.79-6.23,6.23-6.23
						C369.86,178.47,372.65,181.27,372.65,184.71z"/>
					<g>
						<path class="st22" d="M344.46,179.37c-1.96,7.05-4.25,13.97-6.62,20.87c-1.19,3.44-2.4,6.89-3.64,10.3l-0.2,0.58
							c-0.02,0.03-0.04,0.16-0.01-0.02c-0.01-0.15-0.01-0.16-0.02-0.19c-0.02-0.04-0.01,0.02,0.03,0.07
							c0.14,0.24,0.45,0.58,0.74,0.88c0.62,0.6,1.27,1.22,1.95,1.81c1.34,1.21,2.73,2.4,4.06,3.7c-1.72-0.7-3.34-1.58-4.91-2.56
							c-0.77-0.51-1.56-1.01-2.29-1.64c-0.37-0.32-0.73-0.62-1.11-1.13c-0.09-0.13-0.2-0.28-0.29-0.53
							c-0.04-0.14-0.09-0.26-0.08-0.52c0.02-0.3,0.05-0.28,0.06-0.36l0.22-0.72c0.56-1.75,1.2-3.45,1.83-5.17
							c0.63-1.71,1.25-3.43,1.91-5.13c1.3-3.41,2.63-6.8,4.02-10.18C341.5,186.05,342.93,182.69,344.46,179.37z"/>
					</g>
				</g>
			</g>
			<g>
				<path class="st9" d="M399.34,186.64c-1.72,10.63,2.64,20.34,9.74,21.69c7.1,1.35,14.26-6.18,15.98-16.81
					c1.72-10.63-2.64-20.34-9.74-21.69C408.22,168.48,401.07,176,399.34,186.64z"/>
				<path class="st11" d="M406.85,187.71c-1.08-0.21-2.17-0.09-3.21,0.29c0.02-0.18,0.04-0.35,0.07-0.53
					c1.14-7.02,5.87-12,10.56-11.11c4.69,0.89,7.58,7.31,6.44,14.33c-0.88,5.4-3.87,9.58-7.35,10.82
					C414.27,194.69,411.43,188.57,406.85,187.71z"/>
			</g>
			<path class="st23" d="M349.97,91.43c-2.31-5.01-5.92-10.16-10.49-14.44c0.71,15.65-1.92,41.5-27.26,40.72
				c-23.28-0.71-27.16-19.78-26.96-33.35c-5.18,7.36-6.91,15.19-6.91,22.39C303.31,135.6,343.38,119.57,349.97,91.43z"/>
			<g>
				<path class="st22" d="M337.31,225.15c6.94-1.66,16.6-4.46,25.58-8.76c5.91-2.83,11.83,4.5,9.13,11.41
					c-2.87,7.35-8.37,14.47-18.91,16.24c-8.64,1.45-14.37-0.4-18.17-3.34C329.57,236.54,331.12,226.63,337.31,225.15z"/>
				<path class="st24" d="M353.11,244.04c10.54-1.78,16.04-8.89,18.91-16.24c0.4-1.04,0.59-2.08,0.64-3.1
					c-3.9-1.4-8.98-1.69-15.6,0.31c-10.22,3.09-14.73,10.84-16.58,18.48c0,0.02,0,0.03-0.01,0.04
					C343.78,244.58,347.91,244.91,353.11,244.04z"/>
				<path class="st25" d="M347.35,235.77c1.19,1.71,5.18,1.1,8.91-1.36c3.73-2.46,5.8-5.84,4.62-7.55c-1.19-1.71-5.18-1.1-8.91,1.36
					C348.24,230.69,346.17,234.07,347.35,235.77z"/>
				<path class="st14" d="M337.31,225.15c6.94-1.66,16.6-4.46,25.58-8.76c3.63-1.74,7.25,0.36,8.89,3.84
					c-5.05,5.28-13.05,9.87-22.6,12.39c-6.13,1.62-12.11,2.18-17.47,1.82C331.36,230.36,333.41,226.08,337.31,225.15z"/>
			</g>
		</g>
		<g>
			<g>
				<path class="st16" d="M584.49,167.96h-77.71c-10.36,0-18.76,8.4-18.76,18.76v38.85c0,9.91,7.69,18,17.42,18.69v21.06
					l20.99-20.99h58.06c10.36,0,18.76-8.4,18.76-18.76v-38.85C603.25,176.36,594.85,167.96,584.49,167.96z"/>
			</g>
			<g>
				<path class="st15" d="M594.57,157.87h-77.71c-10.36,0-18.76,8.4-18.76,18.76v38.85c0,9.91,7.69,18,17.42,18.69v21.06
					l20.99-20.99h58.06c10.36,0,18.76-8.4,18.76-18.76v-38.85C613.33,166.27,604.93,157.87,594.57,157.87z"/>
			</g>
			<g>
				<path class="st16" d="M521.89,185.73L521.89,185.73c0,1.35,1.09,2.45,2.45,2.45h62.77c1.35,0,2.45-1.1,2.45-2.45l0,0
					c0-1.35-1.09-2.45-2.45-2.45h-62.77C522.98,183.28,521.89,184.38,521.89,185.73z"/>
				<path class="st16" d="M524.33,198.5h62.77c1.35,0,2.45-1.1,2.45-2.45l0,0c0-1.35-1.09-2.45-2.45-2.45h-62.77
					c-1.35,0-2.45,1.1-2.45,2.45l0,0C521.89,197.41,522.98,198.5,524.33,198.5z"/>
				<path class="st16" d="M524.33,208.83h62.77c1.35,0,2.45-1.1,2.45-2.45l0,0c0-1.35-1.09-2.45-2.45-2.45h-62.77
					c-1.35,0-2.45,1.1-2.45,2.45l0,0C521.89,207.73,522.98,208.83,524.33,208.83z"/>
			</g>
			<g>
				<path class="st14" d="M524.89,182.73L524.89,182.73c0,1.35,1.09,2.45,2.45,2.45h62.77c1.35,0,2.45-1.1,2.45-2.45l0,0
					c0-1.35-1.09-2.45-2.45-2.45h-62.77C525.98,180.28,524.89,181.38,524.89,182.73z"/>
				<path class="st14" d="M527.33,195.5h62.77c1.35,0,2.45-1.1,2.45-2.45l0,0c0-1.35-1.09-2.45-2.45-2.45h-62.77
					c-1.35,0-2.45,1.1-2.45,2.45l0,0C524.89,194.41,525.98,195.5,527.33,195.5z"/>
				<path class="st14" d="M527.33,205.83h62.77c1.35,0,2.45-1.1,2.45-2.45l0,0c0-1.35-1.09-2.45-2.45-2.45h-62.77
					c-1.35,0-2.45,1.1-2.45,2.45l0,0C524.89,204.73,525.98,205.83,527.33,205.83z"/>
			</g>
		</g>
	</g>
</g>
</svg>
